# xmcd
#
# Track frame offsets: 
#        150
#        8517
#        19829
#        32893
#        44619
#        61383
#        73353
#        88964
#        100093
#
# Disc length: 1612 seconds
#
# Revision: 1
# Processed by: cddbd v1.5.2PL0 Copyright (c) Steve Scherf et al.
# Submitted via: ExactAudioCopy v1.3
#
DISCID=78064a09
DTITLE=Serpentine Dominion - Serpentine Dominion
DYEAR=2016
DGENRE=Death Metal
TTITLE0=Intro
TTITLE1=The Vengeance In Me
TTITLE2=Vanquished Unto Thee
TTITLE3=Divide, Conquer, Burn, And Destroy
TTITLE4=Sovereign Hate
TTITLE5=On The Brink Of Destruction
TTITLE6=Jagged Cross Legions
TTITLE7=Prelude
TTITLE8=This Endless War
EXTD=
EXTT0=
EXTT1=
EXTT2=
EXTT3=
EXTT4=
EXTT5=
EXTT6=
EXTT7=
EXTT8=
PLAYORDER=
